<?xml version="1.0" encoding="UTF-8" standalone="no"?>
<!-- Created with Inkscape (http://www.inkscape.org/) -->

<svg
   xmlns:dc="http://purl.org/dc/elements/1.1/"
   xmlns:cc="http://creativecommons.org/ns#"
   xmlns:rdf="http://www.w3.org/1999/02/22-rdf-syntax-ns#"
   xmlns:svg="http://www.w3.org/2000/svg"
   xmlns="http://www.w3.org/2000/svg"
   xmlns:sodipodi="http://sodipodi.sourceforge.net/DTD/sodipodi-0.dtd"
   xmlns:inkscape="http://www.inkscape.org/namespaces/inkscape"
   width="210mm"
   height="297mm"
   viewBox="0 0 744.09448819 1052.3622047"
   id="svg3455"
   version="1.1"
   inkscape:version="0.91 r13725"
   sodipodi:docname="cat.svg">
  <defs
     id="defs3457" />
  <sodipodi:namedview
     id="base"
     pagecolor="#ffffff"
     bordercolor="#666666"
     borderopacity="1.0"
     inkscape:pageopacity="0.0"
     inkscape:pageshadow="2"
     inkscape:zoom="0.35"
     inkscape:cx="375"
     inkscape:cy="520"
     inkscape:document-units="px"
     inkscape:current-layer="layer1"
     showgrid="false"
     inkscape:window-width="1920"
     inkscape:window-height="1028"
     inkscape:window-x="-8"
     inkscape:window-y="-8"
     inkscape:window-maximized="1" />
  <metadata
     id="metadata3460">
    <rdf:RDF>
      <cc:Work
         rdf:about="">
        <dc:format>image/svg+xml</dc:format>
        <dc:type
           rdf:resource="http://purl.org/dc/dcmitype/StillImage" />
        <dc:title></dc:title>
      </cc:Work>
    </rdf:RDF>
  </metadata>
  <g
     inkscape:label="Layer 1"
     inkscape:groupmode="layer"
     id="layer1">
    <path
       inkscape:connector-curvature="0"
       id="path3410"
       style="fill:#040606;fill-opacity:1;fill-rule:nonzero;stroke:none"
       d="m 708.33518,268.47617 c -22.42375,-35.00625 -75.4325,-56.3575 -131.4175,-30.21125 -66.17,30.90125 -64.03125,114.6225 -46.98375,175.06125 17.0475,60.43625 87.8375,149.0175 99.59,208.1325 8.1075,40.78875 -17.94875,102.2625 -65.6925,143.5 0.135,-21.7475 3.9925,-68.81875 -11.36625,-152.195 -19.7275,-107.08875 -59.88375,-155.3475 -107.0875,-183.88125 -47.20375,-28.5325 -92.09125,-19.4925 -125.25,-27.9225 -33.15875,-8.43 -32.21125,-67.78 -51.67375,-112.07125 -18.65875,-42.46375 -40.935,-57.04125 -58.65375,-70.39625 -17.71625,-13.3525 -24.305,-19.28625 -32.495,-25.89125 -8.19,-6.605 -28.53375,-21.13625 -31.96875,-20.87125 -3.435,0.265 -3.435,7.1325 -5.28375,8.19 -1.84875,1.05625 -8.19,-7.3975 -11.36,-10.04 -3.17125,-2.64125 -8.9825,-6.86875 -10.8325,-2.64125 -1.84875,4.22625 12.6825,36.98625 10.5675,40.95 -2.11375,3.96375 -4.755,3.96375 -19.55,8.19 -14.794997,4.2275 -36.458747,28.005 -42.271247,35.6675 -5.81375,7.66125 -11.09625,32.2325 -14.2675,37.515 -3.17,5.285 -10.30375,12.94625 -13.21,15.85375 -2.90625,2.905 -5.28375,8.18875 -5.5475,13.7375 -0.265,5.5475 2.64125,9.51 5.02,11.36 2.3775,1.85 0.26375,6.605 2.6425,10.8325 2.37625,4.2275 5.8125,6.605 7.925,8.19 2.11375,1.585 -1.32125,5.2825 6.07625,13.7375 7.3975,8.45375 40.335,9.955 49.141247,19.1125 8.80625,9.1575 7.04625,31.705 6.6925,44.03375 -0.3525,12.32875 -15.851247,39.45375 -17.261247,62.7025 -1.4075,23.25 28.182497,88.06625 44.386247,105.32625 16.20375,17.2625 40.51,71.15625 40.1575,83.13375 -0.35125,11.97875 -6.6925,38.3975 -10.215,52.4875 -3.525,14.08875 -6.3425,52.135 -9.5125,55.30625 -3.16875,3.16875 -22.54375,6.34125 -28.885,11.62375 -6.34125,5.285 -7.3975,15.85125 -0.705,27.4775 6.6925,11.62375 19.7275,9.86 19.7275,9.86 0,0 -6.34125,4.75625 -9.51125,11.625 -3.17,6.87 -1.585,19.0225 5.8125,22.7225 7.3975,3.69875 43.3275,6.34 54.425,5.28375 11.09625,-1.0575 16.38,-4.2275 24.83375,-13.21 8.455,-8.98375 10.04,-30.12 12.15375,-32.23375 2.1125,-2.1125 15.8525,4.22875 28.00375,4.7575 12.15375,0.52625 43.32875,2.1125 43.32875,2.1125 l 6.34125,5.285 c 0,0 -15.32375,9.51125 -18.49375,23.25 -3.17,13.73625 3.17,22.8975 16.55625,27.82875 13.3875,4.93 40.15875,-1.41 48.6125,-4.93125 8.455,-3.52125 16.90875,2.115 37.34,2.115 20.43125,0 66.93,-8.4575 97.22375,-9.865 30.295,-1.41125 21.13625,-4.93125 27.4775,-10.56875 6.34125,-5.6375 11.27125,-3.52375 29.59,-19.0225 4.6175,-3.9075 8.025,-9.7425 10.46125,-16.45125 5.71375,-2.53125 11.42375,-5.29375 17.10375,-8.30875 76.4975,-40.6075 171.8675,-164.52 31.495,-358.2425 -38.9275,-53.7225 -50.52,-124.24125 -34.64125,-157.61625 15.88,-33.37375 60.015,-42.3825 90.43125,-17.14375 30.41625,25.24 19.1525,57.2275 9.065,66.15 -10.0875,8.92375 -55.8925,14.0125 -38.7025,47.71875 8.75875,17.1775 50.17375,6.41375 72.90125,-25.82625 22.7275,-32.23875 20.1775,-76.2825 -2.24375,-111.28875" />
  </g>
</svg>
