<?xml version="1.0" encoding="UTF-8" standalone="no"?>
<!-- Created with Inkscape (http://www.inkscape.org/) -->

<svg
   xmlns:dc="http://purl.org/dc/elements/1.1/"
   xmlns:cc="http://creativecommons.org/ns#"
   xmlns:rdf="http://www.w3.org/1999/02/22-rdf-syntax-ns#"
   xmlns:svg="http://www.w3.org/2000/svg"
   xmlns="http://www.w3.org/2000/svg"
   xmlns:sodipodi="http://sodipodi.sourceforge.net/DTD/sodipodi-0.dtd"
   xmlns:inkscape="http://www.inkscape.org/namespaces/inkscape"
   width="210mm"
   height="297mm"
   viewBox="0 0 744.09448819 1052.3622047"
   id="svg3623"
   version="1.1"
   inkscape:version="0.91 r13725"
   sodipodi:docname="dog.svg">
  <defs
     id="defs3625" />
  <sodipodi:namedview
     id="base"
     pagecolor="#ffffff"
     bordercolor="#666666"
     borderopacity="1.0"
     inkscape:pageopacity="0.0"
     inkscape:pageshadow="2"
     inkscape:zoom="0.35"
     inkscape:cx="375"
     inkscape:cy="520"
     inkscape:document-units="px"
     inkscape:current-layer="layer1"
     showgrid="false"
     inkscape:window-width="458"
     inkscape:window-height="405"
     inkscape:window-x="-8"
     inkscape:window-y="0"
     inkscape:window-maximized="0" />
  <metadata
     id="metadata3628">
    <rdf:RDF>
      <cc:Work
         rdf:about="">
        <dc:format>image/svg+xml</dc:format>
        <dc:type
           rdf:resource="http://purl.org/dc/dcmitype/StillImage" />
        <dc:title></dc:title>
      </cc:Work>
    </rdf:RDF>
  </metadata>
  <g
     inkscape:label="Layer 1"
     inkscape:groupmode="layer"
     id="layer1">
    <path
       d="m 661.33243,606.86965 c -0.69457,3.81339 -2.30775,21.08791 -9.00694,25.40765 -6.6992,4.31303 3.69688,-58.93499 3.00231,-67.56777 -0.69457,-8.63501 6.00463,-14.47608 6.00463,-14.47608 1.16508,3.55572 1.83724,20.31716 2.0837,26.16047 0.22405,5.84107 -1.38913,26.67131 -2.0837,30.47573 z m 68.62754,229.62332 c -2.08369,-12.95476 0,-48.77193 0,-48.77193 0,0 -60.31516,-60.19641 -62.37645,-76.20279 -2.0837,-15.99965 4.14499,-75.43652 5.53412,-84.58014 1.38913,-9.14137 9.70151,-37.33849 11.09064,-57.14929 1.38913,-19.81079 -2.77826,-30.48021 -9.00695,-54.86394 -6.25109,-24.38597 -16.64716,-27.43085 -19.40302,-33.52959 -2.77826,-6.09873 -24.26498,-18.28947 -24.26498,-18.28947 l -16.64044,-6.85379 C 594.79307,429.58072 492.21472,423.48422 492.21472,423.48422 l -22.1768,-0.7573 c -22.18128,-0.76626 -41.58879,-3.81562 -64.46239,-4.57965 -22.87137,-0.7573 -63.76559,-9.14137 -84.55774,-15.23562 -20.79215,-6.10098 -72.78149,-35.05763 -72.78149,-35.05763 -9.70151,-4.56621 -24.25602,-17.52322 -28.41221,-23.61747 -4.16067,-6.09873 -24.95282,-46.48435 -36.04122,-66.29514 -11.08616,-19.81528 -7.62229,-9.14586 -22.8736,-31.24424 C 145.6602,224.60102 126.2527,143.4489 126.2527,143.4489 l -0.69009,-3.4325 c 0,-3.8089 -6.23988,14.47833 -7.62677,18.28948 -1.38689,3.8089 -0.69233,43.43498 -1.38689,34.29136 -0.69009,-9.14585 -1.38689,25.14103 -9.70599,15.99741 -8.31462,-9.13913 -4.15395,-13.71206 -9.699271,-23.62194 -5.545325,-9.9054 2.081451,-23.61971 2.771541,-28.19264 0.69232,-4.57068 10.39831,-12.19074 7.62677,-12.95476 -2.77602,-0.75954 -10.398311,7.62229 -13.866661,9.90764 -3.463865,2.28758 -10.396076,44.199 -11.780725,54.8617 -1.389131,10.66942 -12.477532,16.00637 -20.794392,19.81528 -8.316861,3.80667 -15.246831,19.05126 -13.169856,21.34108 2.076974,2.28087 4.16067,12.95029 -6.237646,15.99293 -10.398316,3.05161 -31.885033,14.48057 -34.6565734,17.52994 -2.7670585,3.0516 -7.6200541,9.14585 -3.4638644,12.95476 4.1606704,3.81339 -2.7692995,9.9054 0,27.43533 2.7737805,17.52322 20.7943918,29.71396 26.3352318,25.90505 5.547561,-3.81114 10.400557,-4.57293 12.479772,-3.81114 2.079215,0.76178 12.47529,13.71878 18.712936,6.85827 6.239886,-6.85827 9.705991,-1.52356 17.323805,-5.33471 7.631257,-3.80443 12.482012,-9.14362 15.251312,-12.95477 2.77378,-3.80666 14.554511,25.14999 14.554511,25.14999 9.01366,10.66718 17.33276,65.52889 22.87584,83.05882 5.54308,17.52545 -2.08145,49.52924 -5.54308,62.48176 -3.46834,12.95701 6.23541,48.77193 13.16762,60.2009 6.92997,11.42896 35.34889,65.53112 40.89421,80.00945 5.54084,14.47609 10.39608,97.53714 12.47305,118.11196 2.08146,20.57258 7.62678,75.43877 7.62678,75.43877 0,0 -3.46611,44.95853 -13.1721,42.6687 -9.70599,-2.28301 -20.09982,9.90997 -29.11125,19.81707 0,0 6.93446,19.0499 12.47305,20.5726 5.55204,1.5219 14.56123,-3.0491 21.49344,0 6.92997,3.0476 11.78072,-7.6194 22.1768,-13.716 10.39607,-6.09679 12.47529,-48.00577 11.09064,-57.15163 -0.96791,-6.3676 6.8045,-5.34143 9.86955,-4.39144 2.64383,-0.89174 11.44016,-3.6095 4.68496,-16.18114 -9.01143,-16.76367 -1.38465,-99.06071 -2.77154,-108.96611 -1.38914,-9.91212 9.00694,-47.24613 7.62453,-54.1044 -1.38465,-6.85603 3.46387,-21.3366 3.46387,-21.3366 5.54756,7.62454 33.27192,-4.57293 53.37175,-6.09649 20.09982,-1.52357 166.34393,-35.05091 170.5046,-35.81717 4.15843,-0.7573 15.93915,-5.33247 20.77198,-0.7573 4.83507,4.57069 0.71473,19.80856 0.0203,24.38148 -0.69457,4.57741 16.63372,0 24.25601,-4.57292 7.62678,-4.57069 11.0884,0.76402 11.0884,0.76402 12.89876,53.14545 101.89051,140.97437 101.89051,140.97437 29.79909,29.71843 29.10453,57.91107 32.57736,73.15118 3.47282,15.23787 1.38913,32.76787 -3.47283,42.67103 -4.83955,9.90531 -10.39608,6.10088 -18.70846,9.90531 -8.31238,3.81321 -6.92325,22.09611 2.77826,26.67091 9.70152,4.5729 16.62476,2.2859 29.7991,0 13.17434,-2.2824 13.17434,-22.09825 12.47977,-36.57622 -0.69456,-14.4784 4.83956,-34.28696 5.53412,-40.38793 0.69457,-6.09201 1.38913,-9.14138 1.38913,-9.14138 17.40895,18.1909 4.16739,76.96243 4.16739,76.96243 0,0 -31.18822,15.2379 -23.57041,36.5748 7.61781,21.3342 29.7991,-1.5219 29.7991,-1.5219 l 4.86195,6.8562 c 0,0 15.25804,-9.1459 17.31933,-22.8605 2.0837,-13.7162 0.69456,-29.7202 0.69456,-39.62354 0,-9.90316 6.94566,-38.09801 4.86196,-51.05278"
       style="fill:#231f20;fill-opacity:1;fill-rule:nonzero;stroke:none"
       id="path3602"
       inkscape:connector-curvature="0" />
  </g>
</svg>
